<svg xmlns="http://www.w3.org/2000/svg" width="24" height="25" viewBox="0 0 24 25" fill="none">
  <g clip-path="url(#clip0_1315_4118)">
    <path d="M17.174 8.87878H4.56098C4.18894 8.89406 3.83588 9.04717 3.57047 9.30833C3.30506 9.56949 3.14627 9.92004 3.12498 10.2918L1.12498 22.1338C1.09529 22.3443 1.1097 22.5587 1.1673 22.7633C1.2249 22.9679 1.32443 23.1583 1.45957 23.3224C1.5947 23.4865 1.7625 23.6207 1.95228 23.7165C2.14207 23.8123 2.3497 23.8676 2.56198 23.8788H19.173C19.3853 23.8676 19.5929 23.8123 19.7827 23.7165C19.9725 23.6207 20.1403 23.4865 20.2754 23.3224C20.4105 23.1583 20.5101 22.9679 20.5677 22.7633C20.6253 22.5587 20.6397 22.3443 20.61 22.1338L18.61 10.2918C18.5887 9.92004 18.4299 9.56949 18.1645 9.30833C17.8991 9.04717 17.546 8.89406 17.174 8.87878Z" stroke="#c9c9c9" stroke-width="1.5" stroke-linecap="round" stroke-linejoin="round"/>
    <path d="M14.553 5.93578C14.3891 5.0777 13.9318 4.30338 13.2594 3.74561C12.5871 3.18784 11.7416 2.88138 10.868 2.87878C9.99767 2.8814 9.15514 3.18555 8.48382 3.73945C7.8125 4.29336 7.35387 5.06279 7.186 5.91678" stroke="#c9c9c9" stroke-width="1.5" stroke-linecap="round" stroke-linejoin="round"/>
    <path d="M20.618 1.37878L18.368 3.62878V5.87878H20.618L22.868 3.62878L20.618 1.37878Z" stroke="#c9c9c9" stroke-width="1.5" stroke-linecap="round" stroke-linejoin="round"/>
  </g>
  <defs>
    <clipPath id="clip0_1315_4118">
      <rect width="24" height="24" fill="white" transform="translate(0 0.628784)"/>
    </clipPath>
  </defs>
</svg>