<svg xmlns="http://www.w3.org/2000/svg" width="41" height="50" viewBox="0 0 41 50" fill="none">
  <path d="M8.71228 30.3581C8.29807 30.3581 7.96228 30.6939 7.96228 31.1081C7.96228 31.5223 8.29807 31.8581 8.71228 31.8581V30.3581ZM31.7123 31.1081V31.8581H31.9666L32.1684 31.7035L31.7123 31.1081ZM20.2123 30.1081L19.4642 30.1623L19.5399 31.2074L20.5048 30.7987L20.2123 30.1081ZM34.2123 16.1081L34.4916 16.8042L34.8194 16.6726L34.9268 16.3361L34.2123 16.1081ZM28.2122 19.1081L27.7931 18.4862L28.2122 19.1081ZM13.7122 21.1081L12.9934 21.322L13.0097 21.3769L13.0342 21.4287L13.7122 21.1081ZM20.2024 1.10812L20.8946 1.39671L19.564 0.714509L20.2024 1.10812ZM14.2123 11.1081L13.617 11.5644L14.11 12.2076L14.7132 11.6663L14.2123 11.1081ZM8.21228 35.1081L8.96022 35.0526L8.93255 34.6796L8.61798 34.4773L8.21228 35.1081ZM11.2123 47.1081L10.7812 47.7219L10.8072 47.7401L10.8346 47.7561L11.2123 47.1081ZM29.7123 47.1081L30.1761 47.6975L29.7123 47.1081ZM32.2123 35.1081L31.8127 34.4734L31.4948 34.6735L31.4647 35.048L32.2123 35.1081ZM33.8501 30.7136L33.4556 30.0758L32.1799 30.8648L32.5744 31.5026L33.8501 30.7136ZM8.71228 31.8581H31.7123V30.3581H8.71228V31.8581ZM32.1684 31.7035C35.4738 29.171 37.7951 25.1514 39.1 21.553C39.7549 19.7471 40.1661 18.0142 40.3132 16.5839C40.3866 15.8697 40.3963 15.2115 40.3291 14.6475C40.2639 14.1003 40.1171 13.5597 39.8097 13.1547L38.6149 14.0616C38.687 14.1565 38.7874 14.3869 38.8396 14.825C38.8898 15.2462 38.8872 15.7875 38.821 16.4305C38.689 17.7145 38.3119 19.3262 37.6899 21.0417C36.4408 24.4861 34.2531 28.2166 31.2561 30.5128L32.1684 31.7035ZM39.8097 13.1547C39.5524 12.8157 39.1794 12.6705 38.8012 12.6822C38.4698 12.6924 38.1542 12.8196 37.8878 12.9624C37.348 13.2517 36.7228 13.7655 36.0589 14.3842C34.7172 15.6345 33.0084 17.5155 31.1708 19.5072C29.3196 21.5136 27.32 23.6525 25.3592 25.4698C23.3844 27.3 21.5119 28.7432 19.9198 29.4175L20.5048 30.7987C22.3513 30.0167 24.3835 28.4192 26.3788 26.57C28.388 24.7079 30.4239 22.5289 32.2733 20.5244C34.1362 18.5052 35.793 16.6823 37.0816 15.4816C37.7327 14.8747 38.2389 14.4761 38.5964 14.2844C38.7787 14.1867 38.8533 14.1813 38.8474 14.1815C38.7947 14.1831 38.6824 14.1505 38.6149 14.0616L39.8097 13.1547ZM20.2123 30.1081C20.9603 30.054 20.9603 30.0539 20.9603 30.0537C20.9603 30.0534 20.9603 30.0531 20.9602 30.0527C20.9602 30.0518 20.9601 30.0504 20.9599 30.0485C20.9597 30.0448 20.9593 30.0393 20.9587 30.0319C20.9577 30.0171 20.9561 29.9949 20.954 29.9656C20.9498 29.9071 20.9437 29.82 20.9358 29.7065C20.92 29.4795 20.8971 29.1465 20.869 28.7234C20.8128 27.877 20.7355 26.67 20.6512 25.2282C20.4827 22.3439 20.2867 18.5234 20.1761 14.7728C20.0653 11.0155 20.0411 7.35311 20.2121 4.77417C20.2986 3.46948 20.4316 2.50728 20.6035 1.95419C20.6986 1.64831 20.7625 1.61613 20.7115 1.65772C20.6591 1.7004 20.5501 1.75788 20.4064 1.74914C20.2802 1.74147 20.2179 1.68769 20.2285 1.69607L21.1598 0.520166C20.9992 0.393025 20.7756 0.268822 20.4974 0.251907C20.2015 0.233923 19.9498 0.343334 19.7636 0.495185C19.4448 0.755112 19.2764 1.17021 19.1711 1.50906C18.9423 2.24544 18.8024 3.36251 18.7154 4.67493C18.5393 7.33019 18.5657 11.0533 18.6767 14.8171C18.7879 18.5875 18.9848 22.4237 19.1538 25.3157C19.2383 26.7621 19.3159 27.9731 19.3723 28.8228C19.4006 29.2477 19.4235 29.5822 19.4394 29.8107C19.4474 29.9249 19.4536 30.0127 19.4578 30.0719C19.4599 30.1016 19.4615 30.1241 19.4626 30.1392C19.4631 30.1468 19.4635 30.1525 19.4638 30.1564C19.464 30.1583 19.4641 30.1597 19.4641 30.1607C19.4642 30.1612 19.4642 30.1616 19.4642 30.1619C19.4642 30.1621 19.4642 30.1623 20.2123 30.1081ZM20.2285 1.69607C20.8013 2.14968 21.4015 2.94748 21.9964 3.96421C22.583 4.96663 23.1285 6.11842 23.6124 7.22239C24.1007 8.33638 24.5049 9.35062 24.8414 10.1436C25.0044 10.5276 25.1548 10.8671 25.2846 11.1152C25.3477 11.2357 25.4214 11.3649 25.5037 11.4733C25.544 11.5263 25.6068 11.6019 25.6927 11.6707C25.767 11.7303 25.9486 11.8581 26.2123 11.8581L26.2123 10.3581C26.4459 10.3581 26.5938 10.4707 26.631 10.5004C26.6578 10.522 26.6756 10.5402 26.6843 10.5497C26.6934 10.5596 26.6981 10.5658 26.6982 10.566C26.6986 10.5664 26.6964 10.5636 26.6917 10.5565C26.687 10.5495 26.6808 10.5397 26.673 10.5267C26.6571 10.5003 26.6374 10.465 26.6136 10.4196C26.5148 10.2309 26.3852 9.94161 26.2222 9.55754C25.9068 8.81432 25.4749 7.73515 24.9862 6.6202C24.4931 5.49522 23.9206 4.28255 23.2911 3.20668C22.6699 2.14511 21.9561 1.15079 21.1598 0.520166L20.2285 1.69607ZM26.2123 11.8581C26.3991 11.8581 26.5447 11.791 26.5903 11.7699C26.6592 11.738 26.7227 11.7003 26.7743 11.6673C26.879 11.6004 26.9965 11.5134 27.1168 11.4191C27.3604 11.2281 27.6718 10.963 28.0216 10.6567C28.721 10.0443 29.6242 9.22253 30.5248 8.41717C31.4332 7.60471 32.3442 6.80409 33.0856 6.20839C33.4577 5.90939 33.7726 5.67375 34.0149 5.51639C34.1368 5.43724 34.2252 5.38778 34.2833 5.36065C34.3632 5.32336 34.3222 5.35812 34.2123 5.35812L34.2123 3.85812C33.9797 3.85812 33.7725 3.94366 33.6485 4.00158C33.5028 4.06967 33.3496 4.15986 33.1979 4.25845C32.8929 4.45655 32.5323 4.72872 32.146 5.0391C31.3706 5.66215 30.4334 6.48653 29.5248 7.29907C28.6083 8.11871 27.7258 8.92194 27.0334 9.52826C26.6873 9.83133 26.4013 10.074 26.1915 10.2385C26.085 10.322 26.0116 10.3746 25.9672 10.4029C25.9443 10.4176 25.9435 10.4164 25.9594 10.409C25.9678 10.4051 25.9906 10.395 26.0243 10.3849C26.054 10.376 26.1215 10.3581 26.2123 10.3581L26.2123 11.8581ZM34.2123 5.35812C34.0173 5.35812 33.8975 5.26139 33.862 5.22642C33.8319 5.19673 33.8403 5.19268 33.871 5.25701C33.9312 5.38327 34.0049 5.6165 34.0745 5.97235C34.2111 6.67078 34.3013 7.67589 34.3213 8.83336C34.3614 11.1565 34.1169 13.9398 33.4978 15.8801L34.9268 16.3361C35.6161 14.1758 35.8625 11.2092 35.821 8.80745C35.8002 7.60249 35.7064 6.50146 35.5466 5.68436C35.4679 5.28244 35.3652 4.90555 35.2248 4.61114C35.1551 4.46513 35.0571 4.29811 34.9149 4.15802C34.7674 4.01266 34.53 3.85812 34.2123 3.85812L34.2123 5.35812ZM34.2123 16.1081C33.933 15.4121 33.9329 15.4121 33.9328 15.4121C33.9328 15.4121 33.9327 15.4122 33.9326 15.4122C33.9324 15.4123 33.9322 15.4124 33.9319 15.4125C33.9313 15.4127 33.9305 15.4131 33.9295 15.4135C33.9274 15.4143 33.9244 15.4155 33.9204 15.4171C33.9126 15.4203 33.9012 15.4249 33.8864 15.4309C33.8568 15.4429 33.8135 15.4606 33.7579 15.4835C33.6467 15.5293 33.4862 15.5961 33.287 15.6807C32.8889 15.8498 32.3353 16.0907 31.7126 16.3781C30.4776 16.9482 28.9318 17.7187 27.7931 18.4862L28.6314 19.7301C29.6651 19.0334 31.1193 18.304 32.3412 17.7401C32.947 17.4605 33.4861 17.2259 33.8735 17.0613C34.0672 16.979 34.2226 16.9144 34.3292 16.8705C34.3825 16.8485 34.4236 16.8317 34.4511 16.8206C34.4649 16.815 34.4752 16.8108 34.482 16.808C34.4854 16.8067 34.4879 16.8056 34.4895 16.805C34.4903 16.8047 34.4909 16.8044 34.4913 16.8043C34.4914 16.8042 34.4915 16.8042 34.4916 16.8042C34.4916 16.8042 34.4916 16.8042 34.4916 16.8042C34.4916 16.8042 34.4916 16.8042 34.2123 16.1081ZM27.7931 18.4862C25.4149 20.0889 23.4622 22.8368 21.9653 25.0727C21.1977 26.2191 20.5614 27.2144 20.0146 27.941C19.742 28.3032 19.5185 28.5616 19.3388 28.7235C19.1318 28.9099 19.1033 28.8581 19.2123 28.8581L19.2123 30.3581C19.6917 30.3581 20.0824 30.0725 20.3427 29.838C20.6304 29.5789 20.9224 29.2293 21.2132 28.8429C21.7931 28.0723 22.4744 27.0085 23.2117 25.9072C24.7246 23.6476 26.5309 21.1456 28.6314 19.7301L27.7931 18.4862ZM19.2123 28.8581C19.2944 28.8581 19.3208 28.8853 19.2736 28.8588C19.2308 28.8347 19.1594 28.7843 19.0593 28.6919C18.8587 28.5066 18.6128 28.2182 18.3323 27.8361C17.7746 27.0766 17.1511 26.0458 16.561 24.9917C15.9735 23.9425 15.4304 22.8908 15.0336 22.0999C14.8353 21.7048 14.6741 21.3758 14.5625 21.146C14.5068 21.031 14.4635 20.941 14.4342 20.8798C14.4196 20.8493 14.4085 20.826 14.4011 20.8104C14.3974 20.8026 14.3946 20.7968 14.3928 20.793C14.3919 20.7911 14.3913 20.7897 14.3908 20.7888C14.3906 20.7883 14.3905 20.788 14.3904 20.7878C14.3903 20.7877 14.3903 20.7876 14.3903 20.7876C14.3903 20.7876 14.3903 20.7876 13.7122 21.1081C13.0342 21.4287 13.0342 21.4287 13.0343 21.4288C13.0343 21.4289 13.0344 21.4291 13.0344 21.4292C13.0346 21.4296 13.0348 21.43 13.0351 21.4306C13.0356 21.4317 13.0364 21.4334 13.0374 21.4356C13.0395 21.4399 13.0425 21.4463 13.0465 21.4546C13.0544 21.4712 13.066 21.4956 13.0812 21.5273C13.1115 21.5907 13.156 21.6832 13.213 21.8007C13.327 22.0357 13.4912 22.3708 13.6929 22.7726C14.0957 23.5754 14.6498 24.6488 15.2521 25.7245C15.8517 26.7954 16.5107 27.8896 17.1232 28.7239C17.4277 29.1386 17.7389 29.5143 18.0417 29.7939C18.1933 29.9339 18.3601 30.0661 18.539 30.1666C18.7135 30.2646 18.9449 30.3581 19.2123 30.3581L19.2123 28.8581ZM14.4311 20.8942C14.0125 19.4874 14.1443 17.5949 14.6537 15.4616C15.1584 13.3485 16.0098 11.0943 16.9302 9.01557C17.849 6.94029 18.828 5.05933 19.578 3.69609C19.9528 3.01502 20.2697 2.46447 20.4924 2.08503C20.6037 1.89534 20.6914 1.74849 20.751 1.64956C20.7808 1.6001 20.8036 1.56263 20.8187 1.53778C20.8263 1.52535 20.832 1.51608 20.8357 1.51005C20.8375 1.50703 20.8389 1.50482 20.8397 1.50343C20.8402 1.50274 20.8405 1.50225 20.8406 1.50196C20.8407 1.50182 20.8408 1.50176 20.8408 1.50169C20.8408 1.50169 20.8408 1.50173 20.2024 1.10812C19.564 0.714509 19.5639 0.714658 19.5637 0.714859C19.5637 0.714995 19.5635 0.715248 19.5633 0.71552C19.563 0.716064 19.5625 0.716815 19.562 0.717772C19.5608 0.719686 19.5591 0.722422 19.5569 0.725971C19.5526 0.733069 19.5462 0.743418 19.538 0.756939C19.5215 0.78398 19.4974 0.823711 19.4662 0.875494C19.4038 0.979056 19.3131 1.13085 19.1987 1.32579C18.9699 1.71562 18.6461 2.27829 18.2638 2.973C17.4999 4.36136 16.4999 6.2823 15.5586 8.40829C14.6188 10.5309 13.7288 12.8773 13.1948 15.1132C12.6656 17.3289 12.4614 19.534 12.9934 21.322L14.4311 20.8942ZM20.2024 1.10812C19.5101 0.819534 19.5101 0.819491 19.5101 0.819476C19.5101 0.819509 19.5101 0.819522 19.5101 0.819587C19.51 0.819716 19.5099 0.819957 19.5098 0.82031C19.5095 0.821014 19.509 0.822163 19.5084 0.82375C19.507 0.826924 19.505 0.83185 19.5022 0.838483C19.4966 0.851749 19.4881 0.871838 19.4768 0.898382C19.4543 0.951471 19.4205 1.03036 19.3764 1.13208C19.288 1.33556 19.1582 1.63023 18.9931 1.99242C18.6628 2.71733 18.1927 3.71004 17.6336 4.78204C16.497 6.96095 15.0532 9.34575 13.7114 10.5499L14.7132 11.6663C16.2812 10.2592 17.8325 7.64403 18.9635 5.47576C19.5381 4.37417 20.02 3.35649 20.3581 2.6144C20.5273 2.2431 20.6608 1.94012 20.7523 1.72933C20.7981 1.62392 20.8333 1.54151 20.8573 1.48509C20.8693 1.45688 20.8785 1.43516 20.8847 1.42031C20.8879 1.41288 20.8903 1.40717 20.8919 1.40322C20.8927 1.40125 20.8934 1.39971 20.8938 1.39862C20.8941 1.39808 20.8942 1.39765 20.8944 1.39733C20.8944 1.39717 20.8945 1.39701 20.8945 1.39693C20.8946 1.39681 20.8946 1.39671 20.2024 1.10812ZM14.8075 10.6519C13.5096 8.95844 11.7129 7.28942 10.1198 6.04612C9.32134 5.42303 8.55971 4.89565 7.92152 4.51974C7.60326 4.33228 7.30378 4.17541 7.03792 4.06306C6.79539 3.96056 6.49765 3.85812 6.21228 3.85812V5.35812C6.18141 5.35812 6.24658 5.35708 6.45402 5.44474C6.63813 5.52255 6.8757 5.6446 7.16023 5.8122C7.72761 6.1464 8.43452 6.63366 9.19694 7.22865C10.7255 8.42153 12.4199 10.0025 13.617 11.5644L14.8075 10.6519ZM6.21228 3.85812C5.68048 3.85812 5.36398 4.24863 5.21741 4.48286C5.04935 4.75142 4.92496 5.09253 4.82906 5.45213C4.63424 6.18264 4.5094 7.17504 4.47012 8.30648C4.39136 10.5751 4.65252 13.5335 5.49422 16.3247L6.93034 15.8916C6.14309 13.281 5.89524 10.4895 5.96922 8.35852C6.00631 7.29017 6.12327 6.42037 6.27841 5.83865C6.35749 5.54213 6.43512 5.36461 6.48897 5.27856C6.5643 5.15818 6.48957 5.35812 6.21228 5.35812V3.85812ZM5.49422 16.3247C5.69937 17.005 5.76972 17.3597 5.77698 17.5068C5.77848 17.5371 5.77509 17.5261 5.78164 17.4899C5.78683 17.4612 5.8111 17.3414 5.91884 17.2183C6.05059 17.0679 6.23542 16.9938 6.40917 16.9916C6.54937 16.9899 6.64155 17.0347 6.66022 17.044C6.69641 17.0619 6.67805 17.0598 6.58997 16.9763C6.51405 16.9042 6.41789 16.8023 6.3003 16.669C6.06412 16.4014 5.78306 16.055 5.46082 15.6612C4.83783 14.8999 4.06213 13.9606 3.3338 13.3447C2.97839 13.0441 2.55335 12.7487 2.10081 12.6367C1.86081 12.5773 1.58352 12.5621 1.30098 12.6532C1.01267 12.7462 0.782733 12.9294 0.610958 13.1599L1.8136 14.0564C1.82758 14.0376 1.81195 14.0645 1.76145 14.0808C1.7167 14.0952 1.70069 14.0829 1.74034 14.0928C1.84713 14.1192 2.05495 14.2276 2.36521 14.49C2.96821 15 3.65507 15.8231 4.29995 16.6111C4.61163 16.992 4.91584 17.3671 5.17552 17.6614C5.30585 17.8092 5.43527 17.9484 5.55748 18.0644C5.66754 18.1688 5.81985 18.3016 5.9942 18.388C6.08194 18.4315 6.23506 18.4939 6.42743 18.4915C6.65335 18.4888 6.88158 18.3958 7.04732 18.2065C7.18906 18.0447 7.23791 17.8661 7.25764 17.7571C7.27874 17.6406 7.27984 17.5276 7.27516 17.4328C7.25769 17.0793 7.13242 16.5617 6.93034 15.8916L5.49422 16.3247ZM0.610958 13.1599C0.414154 13.4239 0.325714 13.7378 0.284666 14.0225C0.242506 14.315 0.241811 14.6386 0.2664 14.9737C0.31557 15.6439 0.47316 16.4502 0.69669 17.323C1.14514 19.074 1.88757 21.2004 2.69084 23.2545C3.49557 25.3124 4.36967 27.3188 5.08928 28.8357C5.44852 29.5929 5.77325 30.2367 6.03442 30.7069C6.1641 30.9404 6.28495 31.1436 6.39141 31.3003C6.44405 31.3778 6.50202 31.4571 6.56317 31.5273C6.60455 31.5747 6.7197 31.7057 6.89449 31.7875L7.53007 30.4288C7.66058 30.4898 7.71958 30.5711 7.69385 30.5416C7.68789 30.5347 7.66777 30.5098 7.63221 30.4574C7.56227 30.3545 7.4663 30.1957 7.34576 29.9786C7.10647 29.5478 6.79708 28.936 6.44451 28.1928C5.74051 26.7088 4.88027 24.7347 4.08782 22.7083C3.29391 20.678 2.57631 18.6162 2.14979 16.9508C1.93583 16.1154 1.80219 15.4066 1.76238 14.864C1.74248 14.5927 1.74785 14.3855 1.76932 14.2365C1.79191 14.0798 1.82466 14.0415 1.8136 14.0564L0.610958 13.1599ZM6.89449 31.7875C6.72455 31.708 6.63154 31.5403 6.61384 31.4126C6.60526 31.3507 6.62117 31.3444 6.59084 31.4642C6.563 31.5743 6.52421 31.6918 6.46707 31.88C6.41461 32.0528 6.35472 32.2612 6.31006 32.4882C6.22048 32.9437 6.18388 33.5138 6.40267 34.1127C6.62453 34.72 7.0766 35.2694 7.80658 35.7389L8.61798 34.4773C8.10526 34.1476 7.89954 33.8387 7.81161 33.598C7.7206 33.3489 7.72219 33.081 7.78186 32.7777C7.81181 32.6254 7.85431 32.4741 7.90238 32.3158C7.94578 32.1729 8.00566 31.9877 8.04503 31.8321C8.08192 31.6863 8.13356 31.4514 8.09964 31.2066C8.05659 30.896 7.87714 30.5911 7.53007 30.4288L6.89449 31.7875ZM7.46433 35.1636C7.73722 38.8417 8.00449 41.5568 8.45816 43.5291C8.91173 45.5011 9.58316 46.8804 10.7812 47.7219L11.6433 46.4944C10.8992 45.9718 10.3441 45.037 9.91998 43.1929C9.49592 41.3492 9.23426 38.7463 8.96022 35.0526L7.46433 35.1636ZM10.8346 47.7561C11.9739 48.4202 13.5739 48.873 15.3179 49.1606C17.077 49.4506 19.0456 49.5823 20.9643 49.569C22.8822 49.5558 24.7703 49.3976 26.3676 49.0994C27.9299 48.8076 29.3324 48.3615 30.1761 47.6975L29.2484 46.5188C28.7089 46.9434 27.6187 47.3398 26.0922 47.6248C24.6007 47.9034 22.8038 48.0563 20.9539 48.0691C19.1049 48.0818 17.2229 47.9544 15.5619 47.6805C13.8859 47.4042 12.4964 46.9886 11.59 46.4602L10.8346 47.7561ZM30.1761 47.6975C30.4567 47.4766 30.6441 47.1176 30.7745 46.8225C30.921 46.491 31.0611 46.081 31.1944 45.6259C31.4617 44.7129 31.7217 43.5479 31.9571 42.3106C32.4279 39.8347 32.8126 37.0001 32.9599 35.1682L31.4647 35.048C31.3224 36.8183 30.9459 39.599 30.4835 42.0303C30.2522 43.2465 30.0026 44.358 29.7548 45.2043C29.6305 45.6289 29.5116 45.9693 29.4025 46.2162C29.2772 46.4996 29.2122 46.5473 29.2484 46.5188L30.1761 47.6975ZM32.6118 35.7428C33.3674 35.2672 34.1807 34.6991 34.5066 33.8292C34.8567 32.8948 34.5692 31.8762 33.8501 30.7136L32.5744 31.5026C33.215 32.5383 33.2037 33.0312 33.1019 33.303C32.976 33.6392 32.6095 33.9719 31.8127 34.4734L32.6118 35.7428Z" fill="#C9C9C9"/>
</svg>