<svg xmlns="http://www.w3.org/2000/svg" width="25" height="24" viewBox="0 0 25 24" fill="none">
  <g clip-path="url(#clip0_1316_11556)">
    <path d="M2.29892 13.357C2.76444 14.4523 3.44114 15.4453 4.29039 16.2791C5.13964 17.1129 6.14482 17.7713 7.24852 18.2167C8.35222 18.6621 9.53284 18.8857 10.723 18.8748C11.9131 18.8639 13.0894 18.6187 14.1848 18.1532C15.2801 17.6876 16.2731 17.0109 17.1069 16.1617C17.9407 15.3124 18.5991 14.3072 19.0445 13.2035C19.4898 12.0998 19.7135 10.9192 19.7025 9.7291C19.6916 8.53898 19.4464 7.36266 18.9809 6.2673C18.5154 5.17194 17.8387 4.179 16.9894 3.34517C16.1402 2.51133 15.135 1.85294 14.0313 1.40757C12.9276 0.962206 11.747 0.738591 10.5569 0.749495C9.36675 0.7604 8.19042 1.00561 7.09507 1.47113C5.99971 1.93664 5.00677 2.61334 4.17294 3.4626C3.33911 4.31186 2.68071 5.31703 2.23535 6.42073C1.78999 7.52444 1.56638 8.70506 1.57728 9.89518C1.58819 11.0853 1.83341 12.2616 2.29892 13.357Z" stroke="#c9c9c9" stroke-width="1.5" stroke-linecap="round" stroke-linejoin="round"/>
    <path d="M17.0479 16.22L24.0769 23.25" stroke="#c9c9c9" stroke-width="1.5" stroke-linecap="round" stroke-linejoin="round"/>
  </g>
  <defs>
    <clipPath id="clip0_1316_11556">
      <rect width="24" height="24" fill="white" transform="translate(0.826904)"/>
    </clipPath>
  </defs>
</svg>